<mxfile host="app.diagrams.net" modified="2022-06-13T14:48:27.391Z" agent="5.0 (Macintosh; Intel Mac OS X 10_15_7) AppleWebKit/537.36 (KHTML, like Gecko) Chrome/102.0.5005.61 Safari/537.36" etag="cIZpvt71y6A_XJMwPZkR" version="20.0.1" type="github">
  <diagram id="jSE4w5UeVd6liVHlkRad" name="Page-1">
    <mxGraphModel dx="2133" dy="521" grid="1" gridSize="10" guides="1" tooltips="1" connect="1" arrows="1" fold="1" page="1" pageScale="1" pageWidth="850" pageHeight="1100" math="0" shadow="0">
      <root>
        <mxCell id="0" />
        <mxCell id="1" parent="0" />
        <mxCell id="fVZCh7YvwcZvcJHenlLt-53" value="" style="edgeStyle=orthogonalEdgeStyle;rounded=0;orthogonalLoop=1;jettySize=auto;html=1;" edge="1" parent="1" source="fVZCh7YvwcZvcJHenlLt-8" target="fVZCh7YvwcZvcJHenlLt-45">
          <mxGeometry relative="1" as="geometry" />
        </mxCell>
        <mxCell id="fVZCh7YvwcZvcJHenlLt-8" value="product-svc" style="outlineConnect=0;dashed=0;verticalLabelPosition=bottom;verticalAlign=top;align=center;html=1;shape=mxgraph.aws3.worker;fillColor=#D9A741;gradientColor=none;" vertex="1" parent="1">
          <mxGeometry x="40" y="441" width="60" height="67" as="geometry" />
        </mxCell>
        <mxCell id="fVZCh7YvwcZvcJHenlLt-54" value="" style="edgeStyle=orthogonalEdgeStyle;rounded=0;orthogonalLoop=1;jettySize=auto;html=1;" edge="1" parent="1" source="fVZCh7YvwcZvcJHenlLt-9" target="fVZCh7YvwcZvcJHenlLt-46">
          <mxGeometry relative="1" as="geometry" />
        </mxCell>
        <mxCell id="fVZCh7YvwcZvcJHenlLt-9" value="customer-svc" style="outlineConnect=0;dashed=0;verticalLabelPosition=bottom;verticalAlign=top;align=center;html=1;shape=mxgraph.aws3.worker;fillColor=#D9A741;gradientColor=none;" vertex="1" parent="1">
          <mxGeometry x="200" y="440" width="60" height="63" as="geometry" />
        </mxCell>
        <mxCell id="fVZCh7YvwcZvcJHenlLt-55" value="" style="edgeStyle=orthogonalEdgeStyle;rounded=0;orthogonalLoop=1;jettySize=auto;html=1;" edge="1" parent="1" source="fVZCh7YvwcZvcJHenlLt-10" target="fVZCh7YvwcZvcJHenlLt-47">
          <mxGeometry relative="1" as="geometry" />
        </mxCell>
        <mxCell id="fVZCh7YvwcZvcJHenlLt-10" value="transaction-svc" style="outlineConnect=0;dashed=0;verticalLabelPosition=bottom;verticalAlign=top;align=center;html=1;shape=mxgraph.aws3.worker;fillColor=#D9A741;gradientColor=none;" vertex="1" parent="1">
          <mxGeometry x="350" y="440" width="60" height="63" as="geometry" />
        </mxCell>
        <mxCell id="fVZCh7YvwcZvcJHenlLt-56" value="" style="edgeStyle=orthogonalEdgeStyle;rounded=0;orthogonalLoop=1;jettySize=auto;html=1;" edge="1" parent="1" source="fVZCh7YvwcZvcJHenlLt-11" target="fVZCh7YvwcZvcJHenlLt-48">
          <mxGeometry relative="1" as="geometry" />
        </mxCell>
        <mxCell id="fVZCh7YvwcZvcJHenlLt-11" value="merchant-svc" style="outlineConnect=0;dashed=0;verticalLabelPosition=bottom;verticalAlign=top;align=center;html=1;shape=mxgraph.aws3.worker;fillColor=#D9A741;gradientColor=none;" vertex="1" parent="1">
          <mxGeometry x="470" y="441" width="60" height="63" as="geometry" />
        </mxCell>
        <mxCell id="fVZCh7YvwcZvcJHenlLt-57" value="" style="edgeStyle=orthogonalEdgeStyle;rounded=0;orthogonalLoop=1;jettySize=auto;html=1;" edge="1" parent="1" source="fVZCh7YvwcZvcJHenlLt-18" target="fVZCh7YvwcZvcJHenlLt-49">
          <mxGeometry relative="1" as="geometry" />
        </mxCell>
        <mxCell id="fVZCh7YvwcZvcJHenlLt-18" value="order-svc" style="outlineConnect=0;dashed=0;verticalLabelPosition=bottom;verticalAlign=top;align=center;html=1;shape=mxgraph.aws3.worker;fillColor=#D9A741;gradientColor=none;" vertex="1" parent="1">
          <mxGeometry x="600" y="441" width="60" height="63" as="geometry" />
        </mxCell>
        <mxCell id="fVZCh7YvwcZvcJHenlLt-26" style="edgeStyle=orthogonalEdgeStyle;rounded=0;orthogonalLoop=1;jettySize=auto;html=1;" edge="1" parent="1" source="fVZCh7YvwcZvcJHenlLt-21">
          <mxGeometry relative="1" as="geometry">
            <mxPoint x="70" y="440" as="targetPoint" />
            <Array as="points">
              <mxPoint x="310" y="360" />
              <mxPoint x="70" y="360" />
            </Array>
          </mxGeometry>
        </mxCell>
        <mxCell id="fVZCh7YvwcZvcJHenlLt-27" style="edgeStyle=orthogonalEdgeStyle;rounded=0;orthogonalLoop=1;jettySize=auto;html=1;" edge="1" parent="1" source="fVZCh7YvwcZvcJHenlLt-21" target="fVZCh7YvwcZvcJHenlLt-9">
          <mxGeometry relative="1" as="geometry">
            <Array as="points">
              <mxPoint x="310" y="360" />
              <mxPoint x="230" y="360" />
            </Array>
          </mxGeometry>
        </mxCell>
        <mxCell id="fVZCh7YvwcZvcJHenlLt-28" style="edgeStyle=orthogonalEdgeStyle;rounded=0;orthogonalLoop=1;jettySize=auto;html=1;" edge="1" parent="1" source="fVZCh7YvwcZvcJHenlLt-21" target="fVZCh7YvwcZvcJHenlLt-10">
          <mxGeometry relative="1" as="geometry">
            <Array as="points">
              <mxPoint x="310" y="360" />
              <mxPoint x="380" y="360" />
            </Array>
          </mxGeometry>
        </mxCell>
        <mxCell id="fVZCh7YvwcZvcJHenlLt-30" style="edgeStyle=orthogonalEdgeStyle;rounded=0;orthogonalLoop=1;jettySize=auto;html=1;" edge="1" parent="1" source="fVZCh7YvwcZvcJHenlLt-21" target="fVZCh7YvwcZvcJHenlLt-11">
          <mxGeometry relative="1" as="geometry">
            <Array as="points">
              <mxPoint x="310" y="360" />
              <mxPoint x="500" y="360" />
            </Array>
          </mxGeometry>
        </mxCell>
        <mxCell id="fVZCh7YvwcZvcJHenlLt-32" style="edgeStyle=orthogonalEdgeStyle;rounded=0;orthogonalLoop=1;jettySize=auto;html=1;entryX=0.5;entryY=0;entryDx=0;entryDy=0;entryPerimeter=0;" edge="1" parent="1" source="fVZCh7YvwcZvcJHenlLt-21" target="fVZCh7YvwcZvcJHenlLt-18">
          <mxGeometry relative="1" as="geometry">
            <mxPoint x="467" y="261.5" as="sourcePoint" />
            <mxPoint x="667" y="440" as="targetPoint" />
            <Array as="points">
              <mxPoint x="310" y="360" />
              <mxPoint x="630" y="360" />
            </Array>
          </mxGeometry>
        </mxCell>
        <mxCell id="fVZCh7YvwcZvcJHenlLt-40" style="edgeStyle=orthogonalEdgeStyle;rounded=0;orthogonalLoop=1;jettySize=auto;html=1;" edge="1" parent="1" source="fVZCh7YvwcZvcJHenlLt-21" target="fVZCh7YvwcZvcJHenlLt-39">
          <mxGeometry relative="1" as="geometry">
            <Array as="points">
              <mxPoint x="310" y="360" />
              <mxPoint x="-70" y="360" />
            </Array>
          </mxGeometry>
        </mxCell>
        <mxCell id="fVZCh7YvwcZvcJHenlLt-42" style="edgeStyle=orthogonalEdgeStyle;rounded=0;orthogonalLoop=1;jettySize=auto;html=1;entryX=0.5;entryY=0;entryDx=0;entryDy=0;entryPerimeter=0;" edge="1" parent="1" source="fVZCh7YvwcZvcJHenlLt-21" target="fVZCh7YvwcZvcJHenlLt-41">
          <mxGeometry relative="1" as="geometry">
            <Array as="points">
              <mxPoint x="310" y="360" />
              <mxPoint x="750" y="360" />
            </Array>
          </mxGeometry>
        </mxCell>
        <mxCell id="fVZCh7YvwcZvcJHenlLt-21" value="gateway-svc" style="outlineConnect=0;dashed=0;verticalLabelPosition=bottom;verticalAlign=top;align=center;html=1;shape=mxgraph.aws3.worker;fillColor=#D9A741;gradientColor=none;" vertex="1" parent="1">
          <mxGeometry x="280" y="220" width="60" height="70" as="geometry" />
        </mxCell>
        <mxCell id="fVZCh7YvwcZvcJHenlLt-31" style="edgeStyle=orthogonalEdgeStyle;rounded=0;orthogonalLoop=1;jettySize=auto;html=1;exitX=0.5;exitY=1;exitDx=0;exitDy=0;exitPerimeter=0;" edge="1" parent="1" source="fVZCh7YvwcZvcJHenlLt-11" target="fVZCh7YvwcZvcJHenlLt-11">
          <mxGeometry relative="1" as="geometry" />
        </mxCell>
        <mxCell id="fVZCh7YvwcZvcJHenlLt-34" style="edgeStyle=orthogonalEdgeStyle;rounded=0;orthogonalLoop=1;jettySize=auto;html=1;" edge="1" parent="1" source="fVZCh7YvwcZvcJHenlLt-33" target="fVZCh7YvwcZvcJHenlLt-21">
          <mxGeometry relative="1" as="geometry">
            <Array as="points">
              <mxPoint x="310" y="170" />
              <mxPoint x="310" y="170" />
            </Array>
          </mxGeometry>
        </mxCell>
        <mxCell id="fVZCh7YvwcZvcJHenlLt-33" value="Web/Mobile" style="rounded=0;whiteSpace=wrap;html=1;" vertex="1" parent="1">
          <mxGeometry x="250" y="130" width="120" height="40" as="geometry" />
        </mxCell>
        <mxCell id="fVZCh7YvwcZvcJHenlLt-52" value="" style="edgeStyle=orthogonalEdgeStyle;rounded=0;orthogonalLoop=1;jettySize=auto;html=1;" edge="1" parent="1" source="fVZCh7YvwcZvcJHenlLt-39" target="fVZCh7YvwcZvcJHenlLt-44">
          <mxGeometry relative="1" as="geometry" />
        </mxCell>
        <mxCell id="fVZCh7YvwcZvcJHenlLt-39" value="notification-svc" style="outlineConnect=0;dashed=0;verticalLabelPosition=bottom;verticalAlign=top;align=center;html=1;shape=mxgraph.aws3.worker;fillColor=#D9A741;gradientColor=none;" vertex="1" parent="1">
          <mxGeometry x="-100" y="440" width="60" height="67" as="geometry" />
        </mxCell>
        <mxCell id="fVZCh7YvwcZvcJHenlLt-58" value="" style="edgeStyle=orthogonalEdgeStyle;rounded=0;orthogonalLoop=1;jettySize=auto;html=1;" edge="1" parent="1" source="fVZCh7YvwcZvcJHenlLt-41" target="fVZCh7YvwcZvcJHenlLt-50">
          <mxGeometry relative="1" as="geometry" />
        </mxCell>
        <mxCell id="fVZCh7YvwcZvcJHenlLt-41" value="authenticate-svc" style="outlineConnect=0;dashed=0;verticalLabelPosition=bottom;verticalAlign=top;align=center;html=1;shape=mxgraph.aws3.worker;fillColor=#D9A741;gradientColor=none;" vertex="1" parent="1">
          <mxGeometry x="720" y="440" width="60" height="67" as="geometry" />
        </mxCell>
        <mxCell id="fVZCh7YvwcZvcJHenlLt-44" value="notification-db" style="sketch=0;outlineConnect=0;fontColor=#232F3E;gradientColor=none;strokeColor=#ffffff;fillColor=#232F3E;dashed=0;verticalLabelPosition=middle;verticalAlign=bottom;align=center;html=1;whiteSpace=wrap;fontSize=10;fontStyle=1;spacing=3;shape=mxgraph.aws4.productIcon;prIcon=mxgraph.aws4.redshift;" vertex="1" parent="1">
          <mxGeometry x="-106" y="600" width="70" height="100" as="geometry" />
        </mxCell>
        <mxCell id="fVZCh7YvwcZvcJHenlLt-45" value="product-db" style="sketch=0;outlineConnect=0;fontColor=#232F3E;gradientColor=none;strokeColor=#ffffff;fillColor=#232F3E;dashed=0;verticalLabelPosition=middle;verticalAlign=bottom;align=center;html=1;whiteSpace=wrap;fontSize=10;fontStyle=1;spacing=3;shape=mxgraph.aws4.productIcon;prIcon=mxgraph.aws4.redshift;" vertex="1" parent="1">
          <mxGeometry x="35" y="600" width="70" height="100" as="geometry" />
        </mxCell>
        <mxCell id="fVZCh7YvwcZvcJHenlLt-46" value="customer-db" style="sketch=0;outlineConnect=0;fontColor=#232F3E;gradientColor=none;strokeColor=#ffffff;fillColor=#232F3E;dashed=0;verticalLabelPosition=middle;verticalAlign=bottom;align=center;html=1;whiteSpace=wrap;fontSize=10;fontStyle=1;spacing=3;shape=mxgraph.aws4.productIcon;prIcon=mxgraph.aws4.redshift;" vertex="1" parent="1">
          <mxGeometry x="195" y="598" width="70" height="100" as="geometry" />
        </mxCell>
        <mxCell id="fVZCh7YvwcZvcJHenlLt-47" value="transaction-db" style="sketch=0;outlineConnect=0;fontColor=#232F3E;gradientColor=none;strokeColor=#ffffff;fillColor=#232F3E;dashed=0;verticalLabelPosition=middle;verticalAlign=bottom;align=center;html=1;whiteSpace=wrap;fontSize=10;fontStyle=1;spacing=3;shape=mxgraph.aws4.productIcon;prIcon=mxgraph.aws4.redshift;" vertex="1" parent="1">
          <mxGeometry x="345" y="598" width="70" height="100" as="geometry" />
        </mxCell>
        <mxCell id="fVZCh7YvwcZvcJHenlLt-48" value="merchant-db" style="sketch=0;outlineConnect=0;fontColor=#232F3E;gradientColor=none;strokeColor=#ffffff;fillColor=#232F3E;dashed=0;verticalLabelPosition=middle;verticalAlign=bottom;align=center;html=1;whiteSpace=wrap;fontSize=10;fontStyle=1;spacing=3;shape=mxgraph.aws4.productIcon;prIcon=mxgraph.aws4.redshift;" vertex="1" parent="1">
          <mxGeometry x="465" y="598" width="70" height="100" as="geometry" />
        </mxCell>
        <mxCell id="fVZCh7YvwcZvcJHenlLt-49" value="order-db" style="sketch=0;outlineConnect=0;fontColor=#232F3E;gradientColor=none;strokeColor=#ffffff;fillColor=#232F3E;dashed=0;verticalLabelPosition=middle;verticalAlign=bottom;align=center;html=1;whiteSpace=wrap;fontSize=10;fontStyle=1;spacing=3;shape=mxgraph.aws4.productIcon;prIcon=mxgraph.aws4.redshift;" vertex="1" parent="1">
          <mxGeometry x="595" y="598" width="70" height="100" as="geometry" />
        </mxCell>
        <mxCell id="fVZCh7YvwcZvcJHenlLt-50" value="user-db" style="sketch=0;outlineConnect=0;fontColor=#232F3E;gradientColor=none;strokeColor=#ffffff;fillColor=#232F3E;dashed=0;verticalLabelPosition=middle;verticalAlign=bottom;align=center;html=1;whiteSpace=wrap;fontSize=10;fontStyle=1;spacing=3;shape=mxgraph.aws4.productIcon;prIcon=mxgraph.aws4.redshift;" vertex="1" parent="1">
          <mxGeometry x="716" y="598" width="70" height="100" as="geometry" />
        </mxCell>
        <mxCell id="fVZCh7YvwcZvcJHenlLt-59" value="" style="swimlane;startSize=0;" vertex="1" parent="1">
          <mxGeometry x="-150" y="330" width="1000" height="410" as="geometry" />
        </mxCell>
        <mxCell id="fVZCh7YvwcZvcJHenlLt-60" value="Kakfa Cluster" style="text;html=1;align=center;verticalAlign=middle;resizable=0;points=[];autosize=1;strokeColor=none;fillColor=none;" vertex="1" parent="1">
          <mxGeometry x="365" y="720" width="90" height="20" as="geometry" />
        </mxCell>
      </root>
    </mxGraphModel>
  </diagram>
</mxfile>
